<svg width="256" height="256" viewBox="0 0 256 256" fill="none" xmlns="http://www.w3.org/2000/svg">
<path d="M0 0H256V256H0V0Z" fill="#123A5F"/>
<path d="M61.6753 192.588C84.3116 215.735 118.292 227.794 154.571 219.874C192.843 211.545 222.276 180.784 229.429 142.307C232.751 124.219 231.167 106.743 225.75 91.1074L256 131.219V255.489H110.882" fill="#145593"/>
<path d="M233.207 128.316C233.207 182.888 187.574 227.19 131.243 227.19C101.524 227.19 74.7547 214.875 56.1535 195.152C39.5021 177.574 29.332 154.069 29.332 128.316C29.332 73.7432 74.9655 29.4414 131.296 29.4414C168.656 29.4414 201.327 48.9097 219.085 77.9843C228.043 92.7516 233.207 109.972 233.207 128.316Z" fill="#D2D700"/>
<path d="M53.3071 125.806C53.3078 130.258 53.6698 134.704 54.1995 139.225C54.2641 139.939 54.3205 140.603 54.2842 141.334C54.1695 142.854 53.0813 144.118 51.6352 144.458C50.1387 144.805 48.5024 144.295 47.8606 142.898C47.2857 141.594 46.9043 140.207 46.7246 138.786C43.3365 111.641 50.8063 87.9026 69.7534 68.1964C84.4507 52.9102 102.659 44.5587 123.792 43.0306C142.413 41.653 159.659 46.1424 175.433 56.2044C176.128 56.6605 176.84 57.2175 177.409 57.8496C178.774 59.2322 178.766 61.4079 177.383 62.7722C176.489 63.6426 175.152 64.0158 173.953 63.6419C173.298 63.4379 172.686 63.1753 172.158 62.7953C159.294 54.382 145.18 50.0551 129.865 50.1174C108.553 50.2252 90.2877 57.9128 75.2046 73.0548C64.1766 84.1707 57.2904 97.511 54.4627 112.882C53.6658 117.205 53.3228 121.455 53.3071 125.806Z" fill="#0B5690"/>
<path d="M216.83 135.846C213.754 165.5 199.285 188.292 172.543 203.239C155.596 212.7 137.205 215.763 117.801 213.072C99.5991 210.565 83.8686 203.051 70.5316 190.883C69.6366 190.106 68.9065 189.237 68.3415 188.277C67.4143 186.473 67.9956 184.259 69.7655 183.149C71.4302 182.032 73.7395 182.238 75.1164 183.663C84.5138 193.311 96.0521 199.621 109.173 203.015C132.3 209.03 154.088 205.734 173.975 192.835C191.369 181.561 202.274 165.751 206.864 145.931C209.317 135.288 209.314 124.275 206.853 113.661C206.353 111.783 207.393 109.804 209.288 109.164C211.137 108.417 213.308 109.076 214.404 110.738C214.834 111.381 215.101 112.065 215.261 112.793C216.882 120.381 217.382 128.149 216.83 135.846Z" fill="#0B5690"/>
<path d="M189.646 94.1665L181.369 99.5L182.317 94.1665L160.616 94.0544C160.616 94.0544 156.567 93.8304 156 89.6111V73.1447C156 73.1447 156.445 69.0001 161.425 69.0001H205.801C205.801 69.0001 209.688 68.9254 210.619 73.2194V90.0218C210.619 90.0218 209.647 94.1291 205.558 94.0171H189.565L189.646 94.1665Z" fill="#0B5690"/>
<path d="M181.386 74.4519C181.386 74.4519 178.917 78.7832 178.633 88.8647C178.633 88.8647 178.795 90.5823 178.269 91.105C177.702 91.6277 177.135 91.9264 176.042 91.3664C176.042 91.3664 172.884 89.3874 170.536 82.2184C170.536 82.2184 167.134 88.79 166.163 89.9102C165.232 91.0303 164.665 91.8144 163.571 91.5904C163.571 91.5904 163.086 91.6277 162.6 90.5822C162.114 89.5368 159.928 82.5917 158.713 74.4519C158.713 74.4519 158.713 72.4729 161.223 72.6596C161.223 72.6596 162.357 72.7716 162.519 74.5265C162.519 74.5265 164.26 84.0106 164.786 84.9814L169.685 76.2441C169.685 76.2441 170.576 74.8626 171.831 75.2733C171.831 75.2733 172.722 75.0866 173.167 77.2896C173.167 77.2896 174.503 82.9651 175.192 83.8986C175.192 83.8986 175.759 76.2441 178.269 72.5102C178.269 72.5102 179.2 71.1661 181.022 72.2489C181.022 72.2489 182.237 72.921 181.386 74.4519Z" fill="#D2D700"/>
<path d="M187.054 74.1516C187.054 74.1516 183.45 74.2637 181.75 79.8645C181.75 79.8645 179.402 87.3323 185.515 89.2739C185.515 89.2739 189.281 90.4687 191.993 86.8842C191.993 86.8842 195.394 82.5156 193.572 77.5868C193.572 77.5868 192.196 73.2929 187.054 74.1516Z" fill="#D2D700"/>
<path d="M200.943 74.1516C200.943 74.1516 197.339 74.2637 195.639 79.8645C195.639 79.8645 193.29 87.3323 199.404 89.2739C199.404 89.2739 203.169 90.4687 205.882 86.8842C205.882 86.8842 209.283 82.5156 207.461 77.5868C207.461 77.5868 206.085 73.2929 200.943 74.1516Z" fill="#D2D700"/>
<path d="M187.945 77.5137C187.945 77.5137 184.746 78.5592 185.07 83.5999C185.07 83.5999 185.435 85.6535 186.69 85.8776C186.69 85.8776 188.714 86.475 190.091 82.7785C190.091 82.7785 191.427 77.6257 187.945 77.5137Z" fill="#0B5690"/>
<path d="M201.874 77.888C201.672 77.9254 201.47 78.0374 201.227 78.1867C200.822 78.4481 200.498 78.7468 200.214 79.1202C199.162 80.3897 198.878 82.07 198.959 83.6382C198.959 83.7502 198.959 83.8622 198.959 83.9743C198.959 83.9743 199.324 86.0279 200.579 86.2519C200.579 86.2519 202.603 86.8493 203.98 83.1528C204.223 82.4434 204.263 81.5846 204.223 80.8751C204.182 79.6803 203.818 78.4854 202.522 78C202.32 77.888 202.077 77.8507 201.874 77.888Z" fill="#0B5690"/>
<path d="M127.556 93.5274C127.556 93.5274 128.701 93.1149 131.738 95.4915C134.771 97.8681 150.768 105.243 162.333 106.392C162.333 106.392 166 107 166.678 109.014C166.678 109.014 166.515 136.708 162.249 149.986C157.983 163.258 150.193 173.501 128.701 183.253C128.701 183.253 127.556 183.661 126.405 182.841C125.26 182.021 92.9453 172.107 90.8123 135.235L89.5 109.014C89.5 109.014 89.5 107.5 95.2405 106.225C95.2405 106.225 111.15 102.95 122.96 96.228C122.96 96.228 126.72 93.4685 127.556 93.5274Z" stroke="#0B5690" stroke-width="7" stroke-miterlimit="10"/>
<path d="M148.379 152.492H145.719L144.776 151.612C148.076 147.893 150.063 143.066 150.063 137.815C150.063 126.106 140.262 116.615 128.171 116.615C116.079 116.615 106.278 126.106 106.278 137.815C106.278 149.524 116.079 159.015 128.171 159.015C133.593 159.015 138.578 157.091 142.418 153.895L143.327 154.808V157.385L163.25 178L168.75 172.5L148.379 152.492ZM128.171 152.492C119.784 152.492 132.856 154.958 132.856 146.836C132.856 138.715 119.784 148.659 128.171 148.659C136.557 148.659 121.96 140.538 121.96 148.659C121.96 156.781 136.557 152.492 128.171 152.492Z" fill="#0B5690"/>
<ellipse cx="127.862" cy="138.217" rx="15.2085" ry="14.7546" fill="#145593"/>
<path d="M124.74 148.302L125.294 133.302H130.152L130.706 148.302H124.74ZM127.723 126.142C128.547 126.142 129.254 126.43 129.843 127.005C130.426 127.588 130.713 128.294 130.706 129.125C130.713 129.935 130.426 130.628 129.843 131.203C129.254 131.778 128.547 132.066 127.723 132.066C126.942 132.066 126.253 131.778 125.656 131.203C125.053 130.628 124.747 129.935 124.74 129.125C124.747 128.571 124.893 128.067 125.177 127.613C125.454 127.165 125.816 126.807 126.264 126.537C126.711 126.274 127.198 126.142 127.723 126.142Z" fill="#D2D700"/>
</svg>
